{"asset":{"version":"2.0","generator":"THREE.GLTFExporter"},"scenes":[{"name":"AuxScene","nodes":[6]}],"scene":0,"nodes":[{"mesh":0},{"mesh":1},{"mesh":2},{"mesh":3},{"mesh":4},{"mesh":5},{"children":[0,1,2,3,4,5]}],"bufferViews":[{"buffer":0,"byteOffset":0,"byteLength":540,"target":34962,"byteStride":12},{"buffer":0,"byteOffset":540,"byteLength":540,"target":34962,"byteStride":12},{"buffer":0,"byteOffset":1080,"byteLength":360,"target":34962,"byteStride":8},{"buffer":0,"byteOffset":1440,"byteLength":384,"target":34963},{"buffer":0,"byteOffset":1824,"byteLength":756,"target":34962,"byteStride":12},{"buffer":0,"byteOffset":2580,"byteLength":756,"target":34962,"byteStride":12},{"buffer":0,"byteOffset":3336,"byteLength":504,"target":34962,"byteStride":8},{"buffer":0,"byteOffset":3840,"byteLength":576,"target":34963},{"buffer":0,"byteOffset":4416,"byteLength":540,"target":34962,"byteStride":12},{"buffer":0,"byteOffset":4956,"byteLength":540,"target":34962,"byteStride":12},{"buffer":0,"byteOffset":5496,"byteLength":360,"target":34962,"byteStride":8},{"buffer":0,"byteOffset":5856,"byteLength":384,"target":34963},{"buffer":0,"byteOffset":6240,"byteLength":540,"target":34962,"byteStride":12},{"buffer":0,"byteOffset":6780,"byteLength":540,"target":34962,"byteStride":12},{"buffer":0,"byteOffset":7320,"byteLength":360,"target":34962,"byteStride":8},{"buffer":0,"byteOffset":7680,"byteLength":384,"target":34963},{"buffer":0,"byteOffset":8064,"byteLength":540,"target":34962,"byteStride":12},{"buffer":0,"byteOffset":8604,"byteLength":540,"target":34962,"byteStride":12},{"buffer":0,"byteOffset":9144,"byteLength":360,"target":34962,"byteStride":8},{"buffer":0,"byteOffset":9504,"byteLength":384,"target":34963},{"buffer":0,"byteOffset":9888,"byteLength":540,"target":34962,"byteStride":12},{"buffer":0,"byteOffset":10428,"byteLength":540,"target":34962,"byteStride":12},{"buffer":0,"byteOffset":10968,"byteLength":360,"target":34962,"byteStride":8},{"buffer":0,"byteOffset":11328,"byteLength":384,"target":34963},{"buffer":0,"byteOffset":11712,"byteLength":2376},{"buffer":0,"byteOffset":14088,"byteLength":142144},{"buffer":0,"byteOffset":156232,"byteLength":135052}],"buffers":[{"byteLength":291284,"uri":"mesh.bin"}],"accessors":[{"bufferView":0,"componentType":5126,"count":45,"max":[0.02500000037252903,1,0.02500000037252903],"min":[-0.02500000037252903,0,-0.02500000037252903],"type":"VEC3"},{"bufferView":1,"componentType":5126,"count":45,"max":[1,0,1],"min":[-1,0,-1],"type":"VEC3"},{"bufferView":2,"componentType":5126,"count":45,"max":[1,1],"min":[0,0],"type":"VEC2"},{"bufferView":3,"componentType":5123,"count":192,"max":[44],"min":[0],"type":"SCALAR"},{"bufferView":4,"componentType":5126,"count":63,"max":[0.41767629981040955,0.4676790237426758,0.02500000037252903],"min":[0.21200260519981384,-1.6145896779562463e-06,-0.02500000037252903],"type":"VEC3"},{"bufferView":5,"componentType":5126,"count":63,"max":[1,0.7866532802581787,1],"min":[-1,-0.7866532802581787,-1],"type":"VEC3"},{"bufferView":6,"componentType":5126,"count":63,"max":[1,1],"min":[0,0],"type":"VEC2"},{"bufferView":7,"componentType":5123,"count":288,"max":[62],"min":[0],"type":"SCALAR"},{"bufferView":8,"componentType":5126,"count":45,"max":[0.6320000290870667,0.30000001192092896,0.03200000151991844],"min":[0.5680000185966492,0,-0.03200000151991844],"type":"VEC3"},{"bufferView":9,"componentType":5126,"count":45,"max":[1,0,1],"min":[-1,0,-1],"type":"VEC3"},{"bufferView":10,"componentType":5126,"count":45,"max":[1,1],"min":[0,0],"type":"VEC2"},{"bufferView":11,"componentType":5123,"count":192,"max":[44],"min":[0],"type":"SCALAR"},{"bufferView":12,"componentType":5126,"count":45,"max":[0.699999988079071,0.18199999630451202,0.03200000151991844],"min":[0.5,0.11800000071525574,-0.03200000151991844],"type":"VEC3"},{"bufferView":13,"componentType":5126,"count":45,"max":[0,1,1],"min":[0,-1,-1],"type":"VEC3"},{"bufferView":14,"componentType":5126,"count":45,"max":[1,1],"min":[0,0],"type":"VEC2"},{"bufferView":15,"componentType":5123,"count":192,"max":[44],"min":[0],"type":"SCALAR"},{"bufferView":16,"componentType":5126,"count":45,"max":[0.9200000166893005,0.4000000059604645,0.019999999552965164],"min":[0.8799999952316284,0,-0.019999999552965164],"type":"VEC3"},{"bufferView":17,"componentType":5126,"count":45,"max":[1,0,1],"min":[-1,0,-1],"type":"VEC3"},{"bufferView":18,"componentType":5126,"count":45,"max":[1,1],"min":[0,0],"type":"VEC2"},{"bufferView":19,"componentType":5123,"count":192,"max":[44],"min":[0],"type":"SCALAR"},{"bufferView":20,"componentType":5126,"count":45,"max":[1.4642083644866943,0.46105092763900757,0.017999999225139618],"min":[1.0857917070388794,-0.011050931178033352,-0.017999999225139618],"type":"VEC3"},{"bufferView":21,"componentType":5126,"count":45,"max":[0.7893522381782532,0.6139405965805054,1],"min":[-0.7893522381782532,-0.6139405965805054,-1],"type":"VEC3"},{"bufferView":22,"componentType":5126,"count":45,"max":[1,1],"min":[0,0],"type":"VEC2"},{"bufferView":23,"componentType":5123,"count":192,"max":[44],"min":[0],"type":"SCALAR"}],"materials":[{"pbrMetallicRoughness":{"baseColorFactor":[0.09084171117479915,0.13013647668074665,0.13013647668074665,1],"metallicFactor":0.78,"roughnessFactor":0.62,"metallicRoughnessTexture":{"index":0},"baseColorTexture":{"index":1}},"normalTexture":{"index":2,"scale":0.32},"name":"metal"}],"textures":[{"sampler":0,"source":0},{"sampler":1,"source":1},{"sampler":2,"source":2}],"samplers":[{"magFilter":9729,"minFilter":9987,"wrapS":10497,"wrapT":10497},{"magFilter":9729,"minFilter":9987,"wrapS":10497,"wrapT":10497},{"magFilter":9729,"minFilter":9987,"wrapS":10497,"wrapT":10497}],"images":[{"mimeType":"image/png","uri":"texture-0.png"},{"mimeType":"image/png","uri":"texture-1.png"},{"mimeType":"image/png","uri":"texture-2.png"}],"meshes":[{"primitives":[{"mode":4,"attributes":{"POSITION":0,"NORMAL":1,"TEXCOORD_0":2},"indices":3,"material":0}]},{"primitives":[{"mode":4,"attributes":{"POSITION":4,"NORMAL":5,"TEXCOORD_0":6},"indices":7,"material":0}]},{"primitives":[{"mode":4,"attributes":{"POSITION":8,"NORMAL":9,"TEXCOORD_0":10},"indices":11,"material":0}]},{"primitives":[{"mode":4,"attributes":{"POSITION":12,"NORMAL":13,"TEXCOORD_0":14},"indices":15,"material":0}]},{"primitives":[{"mode":4,"attributes":{"POSITION":16,"NORMAL":17,"TEXCOORD_0":18},"indices":19,"material":0}]},{"primitives":[{"mode":4,"attributes":{"POSITION":20,"NORMAL":21,"TEXCOORD_0":22},"indices":23,"material":0}]}]}