{"asset":{"version":"2.0","generator":"THREE.GLTFExporter"},"scenes":[{"name":"AuxScene","nodes":[10]}],"scene":0,"nodes":[{"matrix":[-0.2399111395317229,0.01446531430397804,-0.0648291539268803,0,3.214304176484284e-11,0.24296188366746824,0.054212029474743184,0,0.06642337331005818,0.05224651898168722,-0.23415306146229248,0,0.10322161763906479,0.07279122620820999,0.16203129291534424,1],"mesh":0},{"matrix":[0.19200064377168063,0.010471231275616796,-0.0740631560235457,0,-2.8492301400487026e-11,0.204027354720737,0.02884588946962175,0,0.07479971997447457,-0.026878219122054008,0.19010999660701808,0,0.1802717000246048,0.07279122620820999,0.17862378060817719,1],"mesh":1},{"matrix":[-0.2541647558286911,0.0041929320030230696,-0.0702446905179671,0,4.0201501778804875e-11,0.26325783139977854,0.015713958848228272,0,0.07036972220700477,0.015144235607276253,-0.25371319000656145,0,0.04698862507939339,0.07279122620820999,0.20735011994838715,1],"mesh":2},{"matrix":[0.1522435092233404,0.007765887788335242,-0.05880050160605794,0,1.7533458833871304e-11,0.161982163751774,0.021393275154099008,0,0.0593111088065398,-0.019933970379367342,0.15093283426305282,0,0.1728115677833557,0.07279122620820999,0.26081693172454834,1],"mesh":3},{"matrix":[-0.17523016044910766,-0.00802949170653117,-0.047846298321465405,0,6.59037830973891e-11,0.17931480719385573,-0.030092333561669946,0,0.04851536859633549,-0.02900130755554522,-0.17281357921010207,0,0.09341313689947128,0.07279122620820999,0.29710322618484497,1],"mesh":4},{"matrix":[-0.2398968935037138,0.003549096675865507,-0.06632453947285581,0,-3.5666085166461684e-11,0.24856618047077406,0.013301040918031625,0,0.0664194300868137,0.0128187984820214,-0.23955416678822278,0,0.14284345507621765,0.07279122620820999,0.16253945231437683,1],"mesh":5},{"matrix":[0.1961073425628127,-0.012428717884751087,-0.07538187572503773,0,-1.9702506234173395e-10,0.20766012353601904,-0.034238324599534464,0,0.07639960875963482,0.03190281884166579,0.19349496110688857,0,0.23494185507297516,0.07279122620820999,0.15113316476345062,1],"mesh":6},{"matrix":[0.2774696039543719,0.04209486173495533,-0.09956371324779512,0,1.5090394566783335e-09,0.27427565919496766,0.11596189006630216,0,0.10809676063535698,-0.10805175141032923,0.25556642070156227,0,0.1802717000246048,0.10279122740030289,0.17862378060817719,1],"mesh":7},{"matrix":[0.2774696039543719,0.04209486173495533,-0.09956371324779512,0,1.5090394566783335e-09,0.27427565919496766,0.11596189006630216,0,0.10809676063535698,-0.10805175141032923,0.25556642070156227,0,0.23494185507297516,0.10279122740030289,0.15113316476345062,1],"mesh":8},{"mesh":9},{"children":[0,1,2,3,4,5,6,7,8,9]}],"bufferViews":[{"buffer":0,"byteOffset":0,"byteLength":2976,"target":34962,"byteStride":12},{"buffer":0,"byteOffset":2976,"byteLength":1984,"target":34962,"byteStride":8},{"buffer":0,"byteOffset":4960,"byteLength":2976,"target":34962,"byteStride":12},{"buffer":0,"byteOffset":7936,"byteLength":2976,"target":34962,"byteStride":12},{"buffer":0,"byteOffset":10912,"byteLength":2520,"target":34963},{"buffer":0,"byteOffset":13432,"byteLength":1728,"target":34962,"byteStride":12},{"buffer":0,"byteOffset":15160,"byteLength":1152,"target":34962,"byteStride":8},{"buffer":0,"byteOffset":16312,"byteLength":1728,"target":34962,"byteStride":12},{"buffer":0,"byteOffset":18040,"byteLength":1260,"target":34963},{"buffer":0,"byteOffset":19300,"byteLength":48816,"target":34962,"byteStride":12},{"buffer":0,"byteOffset":68116,"byteLength":48816,"target":34962,"byteStride":12},{"buffer":0,"byteOffset":116932,"byteLength":32544,"target":34962,"byteStride":8},{"buffer":0,"byteOffset":149476,"byteLength":59536},{"buffer":0,"byteOffset":209012,"byteLength":142904},{"buffer":0,"byteOffset":351916,"byteLength":134720},{"buffer":0,"byteOffset":486636,"byteLength":59536},{"buffer":0,"byteOffset":546172,"byteLength":59536},{"buffer":0,"byteOffset":605708,"byteLength":59536},{"buffer":0,"byteOffset":665244,"byteLength":59536},{"buffer":0,"byteOffset":724780,"byteLength":59536},{"buffer":0,"byteOffset":784316,"byteLength":45480},{"buffer":0,"byteOffset":829796,"byteLength":2376},{"buffer":0,"byteOffset":832172,"byteLength":142144},{"buffer":0,"byteOffset":974316,"byteLength":135052},{"buffer":0,"byteOffset":1109368,"byteLength":59536},{"buffer":0,"byteOffset":1168904,"byteLength":97952},{"buffer":0,"byteOffset":1266856,"byteLength":45480},{"buffer":0,"byteOffset":1312336,"byteLength":123440}],"buffers":[{"byteLength":1435776,"uri":"mesh.bin"}],"accessors":[{"bufferView":0,"componentType":5126,"count":248,"max":[0.33665916323661804,0.12486305087804794,0.38171297311782837],"min":[-0.2951369285583496,-0.004000000189989805,-0.20783066749572754],"type":"VEC3"},{"bufferView":1,"componentType":5126,"count":248,"max":[0.9208239912986755,0.9771412014961243],"min":[0.131078839302063,0.24021166563034058],"type":"VEC2"},{"bufferView":2,"componentType":5126,"count":248,"max":[1,0.9961381554603577,0.8820122480392456],"min":[-0.7732108235359192,-0.9961381554603577,-0.9060021042823792],"type":"VEC3"},{"bufferView":3,"componentType":5126,"count":248,"max":[1.2999999523162842,1.1799999475479126,1],"min":[1,1,0.9200000166893005],"type":"VEC3"},{"bufferView":4,"componentType":5123,"count":1260,"max":[247],"min":[0],"type":"SCALAR"},{"bufferView":5,"componentType":5126,"count":144,"max":[0.10000000149011612,0.07999999821186066,0.09510564804077148],"min":[-0.08331240713596344,0.014999999664723873,-0.09510564804077148],"type":"VEC3"},{"bufferView":6,"componentType":5126,"count":144,"max":[0.8999999761581421,0.8804225921630859],"min":[0.16675037145614624,0.11957739293575287],"type":"VEC2"},{"bufferView":7,"componentType":5126,"count":144,"max":[1,0,0.8427135348320007],"min":[-0.8708016872406006,-0.9194731116294861,-0.8504292368888855],"type":"VEC3"},{"bufferView":8,"componentType":5123,"count":630,"max":[143],"min":[0],"type":"SCALAR"},{"bufferView":9,"componentType":5126,"count":4068,"max":[0.250420480966568,0.07279142737388611,0.30465471744537354],"min":[0.04351269081234932,0.03669130802154541,0.12507644295692444],"type":"VEC3"},{"bufferView":10,"componentType":5126,"count":4068,"max":[0.9996838569641113,1,0.994231641292572],"min":[-0.9996838569641113,-1,-0.994231641292572],"type":"VEC3"},{"bufferView":11,"componentType":5126,"count":4068,"max":[1,1],"min":[0,0],"type":"VEC2"}],"materials":[{"pbrMetallicRoughness":{"baseColorFactor":[0.061246052384376526,0.18782077729701996,0.02955683507025242,1],"metallicFactor":0,"roughnessFactor":0.88,"metallicRoughnessTexture":{"index":0},"baseColorTexture":{"index":1}},"normalTexture":{"index":2,"scale":0.32},"name":"leaf"},{"pbrMetallicRoughness":{"baseColorFactor":[0.061246052384376526,0.18782077729701996,0.02955683507025242,1],"metallicFactor":0,"roughnessFactor":0.88,"metallicRoughnessTexture":{"index":3},"baseColorTexture":{"index":1}},"normalTexture":{"index":2,"scale":0.32},"name":"leaf"},{"pbrMetallicRoughness":{"baseColorFactor":[0.061246052384376526,0.18782077729701996,0.02955683507025242,1],"metallicFactor":0,"roughnessFactor":0.88,"metallicRoughnessTexture":{"index":4},"baseColorTexture":{"index":1}},"normalTexture":{"index":2,"scale":0.32},"name":"leaf"},{"pbrMetallicRoughness":{"baseColorFactor":[0.061246052384376526,0.18782077729701996,0.02955683507025242,1],"metallicFactor":0,"roughnessFactor":0.88,"metallicRoughnessTexture":{"index":5},"baseColorTexture":{"index":1}},"normalTexture":{"index":2,"scale":0.32},"name":"leaf"},{"pbrMetallicRoughness":{"baseColorFactor":[0.19120168685913086,0.2961382567882538,0.052860647439956665,1],"metallicFactor":0,"roughnessFactor":0.88,"metallicRoughnessTexture":{"index":6},"baseColorTexture":{"index":1}},"normalTexture":{"index":2,"scale":0.32},"name":"leaf"},{"pbrMetallicRoughness":{"baseColorFactor":[0.061246052384376526,0.18782077729701996,0.02955683507025242,1],"metallicFactor":0,"roughnessFactor":0.88,"metallicRoughnessTexture":{"index":7},"baseColorTexture":{"index":1}},"normalTexture":{"index":2,"scale":0.32},"name":"leaf"},{"pbrMetallicRoughness":{"baseColorFactor":[0.061246052384376526,0.18782077729701996,0.02955683507025242,1],"metallicFactor":0,"roughnessFactor":0.88,"metallicRoughnessTexture":{"index":8},"baseColorTexture":{"index":1}},"normalTexture":{"index":2,"scale":0.32},"name":"leaf"},{"pbrMetallicRoughness":{"baseColorFactor":[1,0.514917665367466,0.02028856305209031,1],"metallicFactor":0,"roughnessFactor":0.8,"metallicRoughnessTexture":{"index":9},"baseColorTexture":{"index":10}},"normalTexture":{"index":11,"scale":0.32},"doubleSided":true,"name":"flower"},{"pbrMetallicRoughness":{"baseColorFactor":[1,0.514917665367466,0.02028856305209031,1],"metallicFactor":0,"roughnessFactor":0.8,"metallicRoughnessTexture":{"index":12},"baseColorTexture":{"index":10}},"normalTexture":{"index":11,"scale":0.32},"doubleSided":true,"name":"flower"},{"pbrMetallicRoughness":{"baseColorFactor":[0.09989872823822872,0.16513219449147767,0.0343398068028541,1],"metallicFactor":0,"roughnessFactor":0.92,"metallicRoughnessTexture":{"index":13},"baseColorTexture":{"index":14}},"normalTexture":{"index":15,"scale":0.32},"name":"vine"}],"textures":[{"sampler":0,"source":0},{"sampler":1,"source":1},{"sampler":2,"source":2},{"sampler":3,"source":3},{"sampler":4,"source":4},{"sampler":5,"source":5},{"sampler":6,"source":6},{"sampler":7,"source":7},{"sampler":8,"source":8},{"sampler":9,"source":9},{"sampler":10,"source":10},{"sampler":11,"source":11},{"sampler":12,"source":12},{"sampler":13,"source":13},{"sampler":14,"source":14},{"sampler":15,"source":15}],"samplers":[{"magFilter":9729,"minFilter":9987,"wrapS":10497,"wrapT":10497},{"magFilter":9729,"minFilter":9987,"wrapS":10497,"wrapT":10497},{"magFilter":9729,"minFilter":9987,"wrapS":10497,"wrapT":10497},{"magFilter":9729,"minFilter":9987,"wrapS":10497,"wrapT":10497},{"magFilter":9729,"minFilter":9987,"wrapS":10497,"wrapT":10497},{"magFilter":9729,"minFilter":9987,"wrapS":10497,"wrapT":10497},{"magFilter":9729,"minFilter":9987,"wrapS":10497,"wrapT":10497},{"magFilter":9729,"minFilter":9987,"wrapS":10497,"wrapT":10497},{"magFilter":9729,"minFilter":9987,"wrapS":10497,"wrapT":10497},{"magFilter":9729,"minFilter":9987,"wrapS":10497,"wrapT":10497},{"magFilter":9729,"minFilter":9987,"wrapS":10497,"wrapT":10497},{"magFilter":9729,"minFilter":9987,"wrapS":10497,"wrapT":10497},{"magFilter":9729,"minFilter":9987,"wrapS":10497,"wrapT":10497},{"magFilter":9729,"minFilter":9987,"wrapS":10497,"wrapT":10497},{"magFilter":9729,"minFilter":9987,"wrapS":10497,"wrapT":10497},{"magFilter":9729,"minFilter":9987,"wrapS":10497,"wrapT":10497}],"images":[{"mimeType":"image/png","uri":"texture-0.png"},{"mimeType":"image/png","uri":"texture-1.png"},{"mimeType":"image/png","uri":"texture-2.png"},{"mimeType":"image/png","uri":"texture-3.png"},{"mimeType":"image/png","uri":"texture-4.png"},{"mimeType":"image/png","uri":"texture-5.png"},{"mimeType":"image/png","uri":"texture-6.png"},{"mimeType":"image/png","uri":"texture-7.png"},{"mimeType":"image/png","uri":"texture-8.png"},{"mimeType":"image/png","uri":"texture-9.png"},{"mimeType":"image/png","uri":"texture-10.png"},{"mimeType":"image/png","uri":"texture-11.png"},{"mimeType":"image/png","uri":"texture-12.png"},{"mimeType":"image/png","uri":"texture-13.png"},{"mimeType":"image/png","uri":"texture-14.png"},{"mimeType":"image/png","uri":"texture-15.png"}],"meshes":[{"primitives":[{"mode":4,"attributes":{"POSITION":0,"TEXCOORD_0":1,"NORMAL":2,"COLOR_0":3},"indices":4,"material":0}]},{"primitives":[{"mode":4,"attributes":{"POSITION":0,"TEXCOORD_0":1,"NORMAL":2,"COLOR_0":3},"indices":4,"material":1}]},{"primitives":[{"mode":4,"attributes":{"POSITION":0,"TEXCOORD_0":1,"NORMAL":2,"COLOR_0":3},"indices":4,"material":2}]},{"primitives":[{"mode":4,"attributes":{"POSITION":0,"TEXCOORD_0":1,"NORMAL":2,"COLOR_0":3},"indices":4,"material":3}]},{"primitives":[{"mode":4,"attributes":{"POSITION":0,"TEXCOORD_0":1,"NORMAL":2,"COLOR_0":3},"indices":4,"material":4}]},{"primitives":[{"mode":4,"attributes":{"POSITION":0,"TEXCOORD_0":1,"NORMAL":2,"COLOR_0":3},"indices":4,"material":5}]},{"primitives":[{"mode":4,"attributes":{"POSITION":0,"TEXCOORD_0":1,"NORMAL":2,"COLOR_0":3},"indices":4,"material":6}]},{"primitives":[{"mode":4,"attributes":{"POSITION":5,"TEXCOORD_0":6,"NORMAL":7},"indices":8,"material":7}]},{"primitives":[{"mode":4,"attributes":{"POSITION":5,"TEXCOORD_0":6,"NORMAL":7},"indices":8,"material":8}]},{"primitives":[{"mode":4,"attributes":{"POSITION":9,"NORMAL":10,"TEXCOORD_0":11},"material":9}]}]}