{"asset":{"version":"2.0","generator":"THREE.GLTFExporter"},"scenes":[{"name":"AuxScene","nodes":[1]}],"scene":0,"nodes":[{"mesh":0},{"children":[0]}],"bufferViews":[{"buffer":0,"byteOffset":0,"byteLength":90720,"target":34962,"byteStride":12},{"buffer":0,"byteOffset":90720,"byteLength":90720,"target":34962,"byteStride":12},{"buffer":0,"byteOffset":181440,"byteLength":60480,"target":34962,"byteStride":8},{"buffer":0,"byteOffset":241920,"byteLength":2376},{"buffer":0,"byteOffset":244296,"byteLength":142144},{"buffer":0,"byteOffset":386440,"byteLength":135052}],"buffers":[{"byteLength":521492,"uri":"mesh.bin"}],"accessors":[{"bufferView":0,"componentType":5126,"count":7560,"max":[1.2246884107589722,2.5220000743865967,1.0219999551773071],"min":[-1.2239550352096558,-9.728071290737716e-07,-1.019821286201477],"type":"VEC3"},{"bufferView":1,"componentType":5126,"count":7560,"max":[0.9749279022216797,1,1],"min":[-0.9749279022216797,-0.9744541049003601,-0.9009688496589661],"type":"VEC3"},{"bufferView":2,"componentType":5126,"count":7560,"max":[1,1],"min":[0,0],"type":"VEC2"}],"materials":[{"pbrMetallicRoughness":{"baseColorFactor":[0.09084171117479915,0.13013647668074665,0.13013647668074665,1],"metallicFactor":0.78,"roughnessFactor":0.62,"metallicRoughnessTexture":{"index":0},"baseColorTexture":{"index":1}},"normalTexture":{"index":2,"scale":0.32},"name":"metal"}],"textures":[{"sampler":0,"source":0},{"sampler":1,"source":1},{"sampler":2,"source":2}],"samplers":[{"magFilter":9729,"minFilter":9987,"wrapS":10497,"wrapT":10497},{"magFilter":9729,"minFilter":9987,"wrapS":10497,"wrapT":10497},{"magFilter":9729,"minFilter":9987,"wrapS":10497,"wrapT":10497}],"images":[{"mimeType":"image/png","uri":"texture-0.png"},{"mimeType":"image/png","uri":"texture-1.png"},{"mimeType":"image/png","uri":"texture-2.png"}],"meshes":[{"primitives":[{"mode":4,"attributes":{"POSITION":0,"NORMAL":1,"TEXCOORD_0":2},"material":0}]}]}