{"asset":{"version":"2.0","generator":"THREE.GLTFExporter"},"scenes":[{"name":"AuxScene","nodes":[2]}],"scene":0,"nodes":[{"mesh":0},{"mesh":1},{"children":[0,1]}],"bufferViews":[{"buffer":0,"byteOffset":0,"byteLength":25404,"target":34962,"byteStride":12},{"buffer":0,"byteOffset":25404,"byteLength":16936,"target":34962,"byteStride":8},{"buffer":0,"byteOffset":42340,"byteLength":25404,"target":34962,"byteStride":12},{"buffer":0,"byteOffset":67744,"byteLength":24192,"target":34963},{"buffer":0,"byteOffset":91936,"byteLength":864,"target":34962,"byteStride":12},{"buffer":0,"byteOffset":92800,"byteLength":864,"target":34962,"byteStride":12},{"buffer":0,"byteOffset":93664,"byteLength":576,"target":34962,"byteStride":8},{"buffer":0,"byteOffset":94240,"byteLength":672,"target":34963},{"buffer":0,"byteOffset":94912,"byteLength":45480},{"buffer":0,"byteOffset":140392,"byteLength":123440},{"buffer":0,"byteOffset":263832,"byteLength":97952},{"buffer":0,"byteOffset":361784,"byteLength":2376},{"buffer":0,"byteOffset":364160,"byteLength":142144},{"buffer":0,"byteOffset":506304,"byteLength":135052}],"buffers":[{"byteLength":641356,"uri":"mesh.bin"}],"accessors":[{"bufferView":0,"componentType":5126,"count":2117,"max":[0.33783620595932007,0.27535364031791687,0.34869149327278137],"min":[-0.33783620595932007,0.009258138947188854,-0.32510849833488464],"type":"VEC3"},{"bufferView":1,"componentType":5126,"count":2117,"max":[1,1],"min":[0,0],"type":"VEC2"},{"bufferView":2,"componentType":5126,"count":2117,"max":[1,0.999882161617279,1],"min":[-0.993943452835083,-0.997852623462677,-1],"type":"VEC3"},{"bufferView":3,"componentType":5123,"count":12096,"max":[2116],"min":[0],"type":"SCALAR"},{"bufferView":4,"componentType":5126,"count":72,"max":[0.07902766019105911,0.43327608704566956,0.05114790052175522],"min":[-0.022383542731404305,0.24202436208724976,-0.02147565223276615],"type":"VEC3"},{"bufferView":5,"componentType":5126,"count":72,"max":[0.9745147228240967,0.8233210444450378,1],"min":[-0.9749736189842224,-0.8287972807884216,-0.9009688496589661],"type":"VEC3"},{"bufferView":6,"componentType":5126,"count":72,"max":[1,1],"min":[0,0],"type":"VEC2"},{"bufferView":7,"componentType":5123,"count":336,"max":[71],"min":[0],"type":"SCALAR"}],"materials":[{"pbrMetallicRoughness":{"baseColorFactor":[0.48514994004665124,0.13843161502267545,0.019382360952473074,1],"metallicFactor":0,"roughnessFactor":0.84,"metallicRoughnessTexture":{"index":0},"baseColorTexture":{"index":1}},"normalTexture":{"index":2,"scale":0.32},"name":"fruit"},{"pbrMetallicRoughness":{"baseColorFactor":[0.22322795730611386,0.16202937562896222,0.07036009568874305,1],"metallicFactor":0,"roughnessFactor":0.95,"metallicRoughnessTexture":{"index":3},"baseColorTexture":{"index":4}},"normalTexture":{"index":5,"scale":0.32},"name":"stem"}],"textures":[{"sampler":0,"source":0},{"sampler":1,"source":1},{"sampler":2,"source":2},{"sampler":3,"source":3},{"sampler":4,"source":4},{"sampler":5,"source":5}],"samplers":[{"magFilter":9729,"minFilter":9987,"wrapS":10497,"wrapT":10497},{"magFilter":9729,"minFilter":9987,"wrapS":10497,"wrapT":10497},{"magFilter":9729,"minFilter":9987,"wrapS":10497,"wrapT":10497},{"magFilter":9729,"minFilter":9987,"wrapS":10497,"wrapT":10497},{"magFilter":9729,"minFilter":9987,"wrapS":10497,"wrapT":10497},{"magFilter":9729,"minFilter":9987,"wrapS":10497,"wrapT":10497}],"images":[{"mimeType":"image/png","uri":"texture-0.png"},{"mimeType":"image/png","uri":"texture-1.png"},{"mimeType":"image/png","uri":"texture-2.png"},{"mimeType":"image/png","uri":"texture-3.png"},{"mimeType":"image/png","uri":"texture-4.png"},{"mimeType":"image/png","uri":"texture-5.png"}],"meshes":[{"primitives":[{"mode":4,"attributes":{"POSITION":0,"TEXCOORD_0":1,"NORMAL":2},"extras":{"socket":[0,0.25536000000000003,0],"height":0.288,"variant":3},"indices":3,"material":0}]},{"primitives":[{"mode":4,"attributes":{"POSITION":4,"NORMAL":5,"TEXCOORD_0":6},"indices":7,"material":1}]}]}