{"asset":{"version":"2.0","generator":"THREE.GLTFExporter"},"scenes":[{"name":"AuxScene","nodes":[2]}],"scene":0,"nodes":[{"mesh":0},{"mesh":1},{"children":[0,1]}],"bufferViews":[{"buffer":0,"byteOffset":0,"byteLength":11712,"target":34962,"byteStride":12},{"buffer":0,"byteOffset":11712,"byteLength":7808,"target":34962,"byteStride":8},{"buffer":0,"byteOffset":19520,"byteLength":11712,"target":34962,"byteStride":12},{"buffer":0,"byteOffset":31232,"byteLength":11712,"target":34962,"byteStride":12},{"buffer":0,"byteOffset":42944,"byteLength":10800,"target":34963},{"buffer":0,"byteOffset":53744,"byteLength":25920,"target":34962,"byteStride":12},{"buffer":0,"byteOffset":79664,"byteLength":25920,"target":34962,"byteStride":12},{"buffer":0,"byteOffset":105584,"byteLength":17280,"target":34962,"byteStride":8},{"buffer":0,"byteOffset":122864,"byteLength":59536},{"buffer":0,"byteOffset":182400,"byteLength":142904},{"buffer":0,"byteOffset":325304,"byteLength":134720}],"buffers":[{"byteLength":460024,"uri":"mesh.bin"}],"accessors":[{"bufferView":0,"componentType":5126,"count":976,"max":[0.33665916323661804,0.12486305087804794,0.3925012946128845],"min":[-0.29942449927330017,-0.004000000189989805,-0.20783066749572754],"type":"VEC3"},{"bufferView":1,"componentType":5126,"count":976,"max":[0.9208239912986755,0.9906266331672668],"min":[0.1257193684577942,0.24021166563034058],"type":"VEC2"},{"bufferView":2,"componentType":5126,"count":976,"max":[1,0.9992841482162476,0.9338374733924866],"min":[-0.8476577997207642,-0.9992841482162476,-0.9434630870819092],"type":"VEC3"},{"bufferView":3,"componentType":5126,"count":976,"max":[1.2999999523162842,1.1799999475479126,1],"min":[1,1,0.9200000166893005],"type":"VEC3"},{"bufferView":4,"componentType":5123,"count":5400,"max":[975],"min":[0],"type":"SCALAR"},{"bufferView":5,"componentType":5126,"count":2160,"max":[0.26036718487739563,0.07554183900356293,0.28367629647254944],"min":[-0.21849112212657928,0.004466575104743242,-0.2119104117155075],"type":"VEC3"},{"bufferView":6,"componentType":5126,"count":2160,"max":[0.9991217851638794,0.9814128875732422,0.9995611906051636],"min":[-0.9691587686538696,-0.979023814201355,-0.9989848136901855],"type":"VEC3"},{"bufferView":7,"componentType":5126,"count":2160,"max":[1,1],"min":[0,0],"type":"VEC2"}],"materials":[{"pbrMetallicRoughness":{"baseColorFactor":[0.061246054224174035,0.1878207722902346,0.02955683443236377,1],"metallicFactor":0,"roughnessFactor":0.88,"metallicRoughnessTexture":{"index":0},"baseColorTexture":{"index":1}},"normalTexture":{"index":2,"scale":0.32},"name":"leaf"},{"pbrMetallicRoughness":{"baseColorFactor":[0.29613827078752575,0.407240211891531,0.08437621153575764,1],"metallicFactor":0,"roughnessFactor":0.97},"name":"vein"}],"textures":[{"sampler":0,"source":0},{"sampler":1,"source":1},{"sampler":2,"source":2}],"samplers":[{"magFilter":9729,"minFilter":9987,"wrapS":10497,"wrapT":10497},{"magFilter":9729,"minFilter":9987,"wrapS":10497,"wrapT":10497},{"magFilter":9729,"minFilter":9987,"wrapS":10497,"wrapT":10497}],"images":[{"mimeType":"image/png","uri":"texture-0.png"},{"mimeType":"image/png","uri":"texture-1.png"},{"mimeType":"image/png","uri":"texture-2.png"}],"meshes":[{"primitives":[{"mode":4,"attributes":{"POSITION":0,"TEXCOORD_0":1,"NORMAL":2,"COLOR_0":3},"indices":4,"material":0}]},{"primitives":[{"mode":4,"attributes":{"POSITION":5,"NORMAL":6,"TEXCOORD_0":7},"material":1}]}]}