{"asset":{"version":"2.0","generator":"THREE.GLTFExporter"},"scenes":[{"name":"AuxScene","nodes":[2]}],"scene":0,"nodes":[{"mesh":0},{"mesh":1},{"children":[0,1]}],"bufferViews":[{"buffer":0,"byteOffset":0,"byteLength":5904,"target":34962,"byteStride":12},{"buffer":0,"byteOffset":5904,"byteLength":3936,"target":34962,"byteStride":8},{"buffer":0,"byteOffset":9840,"byteLength":5904,"target":34962,"byteStride":12},{"buffer":0,"byteOffset":15744,"byteLength":5904,"target":34962,"byteStride":12},{"buffer":0,"byteOffset":21648,"byteLength":5280,"target":34963},{"buffer":0,"byteOffset":26928,"byteLength":25920,"target":34962,"byteStride":12},{"buffer":0,"byteOffset":52848,"byteLength":25920,"target":34962,"byteStride":12},{"buffer":0,"byteOffset":78768,"byteLength":17280,"target":34962,"byteStride":8},{"buffer":0,"byteOffset":96048,"byteLength":59536},{"buffer":0,"byteOffset":155584,"byteLength":142904},{"buffer":0,"byteOffset":298488,"byteLength":134720}],"buffers":[{"byteLength":433208,"uri":"mesh.bin"}],"accessors":[{"bufferView":0,"componentType":5126,"count":492,"max":[0.33665916323661804,0.12377641350030899,0.38171297311782837],"min":[-0.308366060256958,-0.004000000189989805,-0.20783066749572754],"type":"VEC3"},{"bufferView":1,"componentType":5126,"count":492,"max":[0.9208239912986755,0.9771412014961243],"min":[0.11454243957996368,0.24021166563034058],"type":"VEC2"},{"bufferView":2,"componentType":5126,"count":492,"max":[1,0.9988382458686829,0.8886846899986267],"min":[-0.8095302581787109,-0.9988382458686829,-0.9257019758224487],"type":"VEC3"},{"bufferView":3,"componentType":5126,"count":492,"max":[1.2999999523162842,1.1799999475479126,1],"min":[1,1,0.9200000166893005],"type":"VEC3"},{"bufferView":4,"componentType":5123,"count":2640,"max":[491],"min":[0],"type":"SCALAR"},{"bufferView":5,"componentType":5126,"count":2160,"max":[0.26036718487739563,0.07554183900356293,0.28367629647254944],"min":[-0.21849112212657928,0.004466575104743242,-0.2119104117155075],"type":"VEC3"},{"bufferView":6,"componentType":5126,"count":2160,"max":[0.9991217851638794,0.9814128875732422,0.9995611906051636],"min":[-0.9691587686538696,-0.979023814201355,-0.9989848136901855],"type":"VEC3"},{"bufferView":7,"componentType":5126,"count":2160,"max":[1,1],"min":[0,0],"type":"VEC2"}],"materials":[{"pbrMetallicRoughness":{"baseColorFactor":[0.061246054224174035,0.1878207722902346,0.02955683443236377,1],"metallicFactor":0,"roughnessFactor":0.88,"metallicRoughnessTexture":{"index":0},"baseColorTexture":{"index":1}},"normalTexture":{"index":2,"scale":0.32},"name":"leaf"},{"pbrMetallicRoughness":{"baseColorFactor":[0.29613827078752575,0.407240211891531,0.08437621153575764,1],"metallicFactor":0,"roughnessFactor":0.97},"name":"vein"}],"textures":[{"sampler":0,"source":0},{"sampler":1,"source":1},{"sampler":2,"source":2}],"samplers":[{"magFilter":9729,"minFilter":9987,"wrapS":10497,"wrapT":10497},{"magFilter":9729,"minFilter":9987,"wrapS":10497,"wrapT":10497},{"magFilter":9729,"minFilter":9987,"wrapS":10497,"wrapT":10497}],"images":[{"mimeType":"image/png","uri":"texture-0.png"},{"mimeType":"image/png","uri":"texture-1.png"},{"mimeType":"image/png","uri":"texture-2.png"}],"meshes":[{"primitives":[{"mode":4,"attributes":{"POSITION":0,"TEXCOORD_0":1,"NORMAL":2,"COLOR_0":3},"indices":4,"material":0}]},{"primitives":[{"mode":4,"attributes":{"POSITION":5,"NORMAL":6,"TEXCOORD_0":7},"material":1}]}]}