{"asset":{"version":"2.0","generator":"THREE.GLTFExporter"},"scenes":[{"name":"AuxScene","nodes":[2]}],"scene":0,"nodes":[{"mesh":0},{"mesh":1},{"children":[0,1]}],"bufferViews":[{"buffer":0,"byteOffset":0,"byteLength":72000,"target":34962,"byteStride":12},{"buffer":0,"byteOffset":72000,"byteLength":72000,"target":34962,"byteStride":12},{"buffer":0,"byteOffset":144000,"byteLength":48000,"target":34962,"byteStride":8},{"buffer":0,"byteOffset":192000,"byteLength":864,"target":34962,"byteStride":12},{"buffer":0,"byteOffset":192864,"byteLength":864,"target":34962,"byteStride":12},{"buffer":0,"byteOffset":193728,"byteLength":576,"target":34962,"byteStride":8},{"buffer":0,"byteOffset":194304,"byteLength":672,"target":34963},{"buffer":0,"byteOffset":194976,"byteLength":45480},{"buffer":0,"byteOffset":240456,"byteLength":123440},{"buffer":0,"byteOffset":363896,"byteLength":97952},{"buffer":0,"byteOffset":461848,"byteLength":2376},{"buffer":0,"byteOffset":464224,"byteLength":142144},{"buffer":0,"byteOffset":606368,"byteLength":135052}],"buffers":[{"byteLength":741420,"uri":"mesh.bin"}],"accessors":[{"bufferView":0,"componentType":5126,"count":6000,"max":[0.3538999855518341,0.5259159803390503,0.33067864179611206],"min":[-0.3139815628528595,0.003000000026077032,-0.31197863817214966],"type":"VEC3"},{"bufferView":1,"componentType":5126,"count":6000,"max":[0.9997800588607788,1,1],"min":[-0.9990220665931702,-1,-1],"type":"VEC3"},{"bufferView":2,"componentType":5126,"count":6000,"max":[1,1],"min":[0,0],"type":"VEC2"},{"bufferView":3,"componentType":5126,"count":72,"max":[0.07902766019105911,0.6567161083221436,0.05114790052175522],"min":[-0.022383542731404305,0.46546435356140137,-0.02147565223276615],"type":"VEC3"},{"bufferView":4,"componentType":5126,"count":72,"max":[0.9745147228240967,0.8233210444450378,1],"min":[-0.9749736189842224,-0.8287972807884216,-0.9009688496589661],"type":"VEC3"},{"bufferView":5,"componentType":5126,"count":72,"max":[1,1],"min":[0,0],"type":"VEC2"},{"bufferView":6,"componentType":5123,"count":336,"max":[71],"min":[0],"type":"SCALAR"}],"materials":[{"pbrMetallicRoughness":{"baseColorFactor":[0.450785782828426,0.20863687013464577,0.036889450395083165,1],"metallicFactor":0,"roughnessFactor":0.84,"metallicRoughnessTexture":{"index":0},"baseColorTexture":{"index":1}},"normalTexture":{"index":2,"scale":0.32},"name":"fruit"},{"pbrMetallicRoughness":{"baseColorFactor":[0.22322795730611386,0.16202937562896222,0.07036009568874305,1],"metallicFactor":0,"roughnessFactor":0.95,"metallicRoughnessTexture":{"index":3},"baseColorTexture":{"index":4}},"normalTexture":{"index":5,"scale":0.32},"name":"stem"}],"textures":[{"sampler":0,"source":0},{"sampler":1,"source":1},{"sampler":2,"source":2},{"sampler":3,"source":3},{"sampler":4,"source":4},{"sampler":5,"source":5}],"samplers":[{"magFilter":9729,"minFilter":9987,"wrapS":10497,"wrapT":10497},{"magFilter":9729,"minFilter":9987,"wrapS":10497,"wrapT":10497},{"magFilter":9729,"minFilter":9987,"wrapS":10497,"wrapT":10497},{"magFilter":9729,"minFilter":9987,"wrapS":10497,"wrapT":10497},{"magFilter":9729,"minFilter":9987,"wrapS":10497,"wrapT":10497},{"magFilter":9729,"minFilter":9987,"wrapS":10497,"wrapT":10497}],"images":[{"mimeType":"image/png","uri":"texture-0.png"},{"mimeType":"image/png","uri":"texture-1.png"},{"mimeType":"image/png","uri":"texture-2.png"},{"mimeType":"image/png","uri":"texture-3.png"},{"mimeType":"image/png","uri":"texture-4.png"},{"mimeType":"image/png","uri":"texture-5.png"}],"meshes":[{"primitives":[{"mode":4,"attributes":{"POSITION":0,"NORMAL":1,"TEXCOORD_0":2},"extras":{"socket":[0,0.47880000000000006,0],"height":0.54,"variant":6},"material":0}]},{"primitives":[{"mode":4,"attributes":{"POSITION":3,"NORMAL":4,"TEXCOORD_0":5},"indices":6,"material":1}]}]}