{"asset":{"version":"2.0","generator":"THREE.GLTFExporter"},"scenes":[{"name":"AuxScene","nodes":[1]}],"scene":0,"nodes":[{"mesh":0},{"children":[0]}],"bufferViews":[{"buffer":0,"byteOffset":0,"byteLength":2976,"target":34962,"byteStride":12},{"buffer":0,"byteOffset":2976,"byteLength":1984,"target":34962,"byteStride":8},{"buffer":0,"byteOffset":4960,"byteLength":2976,"target":34962,"byteStride":12},{"buffer":0,"byteOffset":7936,"byteLength":2976,"target":34962,"byteStride":12},{"buffer":0,"byteOffset":10912,"byteLength":2520,"target":34963},{"buffer":0,"byteOffset":13432,"byteLength":59536},{"buffer":0,"byteOffset":72968,"byteLength":142904},{"buffer":0,"byteOffset":215872,"byteLength":134720}],"buffers":[{"byteLength":350592,"uri":"mesh.bin"}],"accessors":[{"bufferView":0,"componentType":5126,"count":248,"max":[0.3085869252681732,0.12499866634607315,0.3829626739025116],"min":[-0.30296531319618225,-0.004000000189989805,-0.18860973417758942],"type":"VEC3"},{"bufferView":1,"componentType":5126,"count":248,"max":[0.8857336640357971,0.9787033200263977],"min":[0.12129337340593338,0.26423782110214233],"type":"VEC2"},{"bufferView":2,"componentType":5126,"count":248,"max":[1,0.9959031343460083,0.944428563117981],"min":[-0.7916625738143921,-0.9959031343460083,-0.944428563117981],"type":"VEC3"},{"bufferView":3,"componentType":5126,"count":248,"max":[1.2999999523162842,1.1799999475479126,1],"min":[1,1,0.9200000166893005],"type":"VEC3"},{"bufferView":4,"componentType":5123,"count":1260,"max":[247],"min":[0],"type":"SCALAR"}],"materials":[{"pbrMetallicRoughness":{"baseColorFactor":[0.21952619971859377,0.16513219449147767,0.05126945836711539,1],"metallicFactor":0,"roughnessFactor":0.88,"metallicRoughnessTexture":{"index":0},"baseColorTexture":{"index":1}},"normalTexture":{"index":2,"scale":0.32},"name":"leaf"}],"textures":[{"sampler":0,"source":0},{"sampler":1,"source":1},{"sampler":2,"source":2}],"samplers":[{"magFilter":9729,"minFilter":9987,"wrapS":10497,"wrapT":10497},{"magFilter":9729,"minFilter":9987,"wrapS":10497,"wrapT":10497},{"magFilter":9729,"minFilter":9987,"wrapS":10497,"wrapT":10497}],"images":[{"mimeType":"image/png","uri":"texture-0.png"},{"mimeType":"image/png","uri":"texture-1.png"},{"mimeType":"image/png","uri":"texture-2.png"}],"meshes":[{"primitives":[{"mode":4,"attributes":{"POSITION":0,"TEXCOORD_0":1,"NORMAL":2,"COLOR_0":3},"indices":4,"material":0}]}]}