{"asset":{"version":"2.0","generator":"THREE.GLTFExporter"},"scenes":[{"name":"AuxScene","nodes":[1]}],"scene":0,"nodes":[{"mesh":0},{"children":[0]}],"bufferViews":[{"buffer":0,"byteOffset":0,"byteLength":11712,"target":34962,"byteStride":12},{"buffer":0,"byteOffset":11712,"byteLength":7808,"target":34962,"byteStride":8},{"buffer":0,"byteOffset":19520,"byteLength":11712,"target":34962,"byteStride":12},{"buffer":0,"byteOffset":31232,"byteLength":11712,"target":34962,"byteStride":12},{"buffer":0,"byteOffset":42944,"byteLength":10800,"target":34963},{"buffer":0,"byteOffset":53744,"byteLength":59536},{"buffer":0,"byteOffset":113280,"byteLength":142904},{"buffer":0,"byteOffset":256184,"byteLength":134720}],"buffers":[{"byteLength":390904,"uri":"mesh.bin"}],"accessors":[{"bufferView":0,"componentType":5126,"count":976,"max":[0.3494071662425995,0.12471206486225128,0.3899826109409332],"min":[-0.3047094941139221,-0.004000000189989805,-0.19648170471191406],"type":"VEC3"},{"bufferView":1,"componentType":5126,"count":976,"max":[0.9367589354515076,0.9874782562255859],"min":[0.11911313235759735,0.2543978691101074],"type":"VEC2"},{"bufferView":2,"componentType":5126,"count":976,"max":[1,0.9993420243263245,0.9450756311416626],"min":[-0.8808596730232239,-0.9993420243263245,-0.9584630131721497],"type":"VEC3"},{"bufferView":3,"componentType":5126,"count":976,"max":[1.2999999523162842,1.1799999475479126,1],"min":[1,1,0.9200000166893005],"type":"VEC3"},{"bufferView":4,"componentType":5123,"count":5400,"max":[975],"min":[0],"type":"SCALAR"}],"materials":[{"pbrMetallicRoughness":{"baseColorFactor":[0.4019777798219466,0.36625259558833256,0.05612849004241121,1],"metallicFactor":0,"roughnessFactor":0.88,"metallicRoughnessTexture":{"index":0},"baseColorTexture":{"index":1}},"normalTexture":{"index":2,"scale":0.32},"name":"leaf"}],"textures":[{"sampler":0,"source":0},{"sampler":1,"source":1},{"sampler":2,"source":2}],"samplers":[{"magFilter":9729,"minFilter":9987,"wrapS":10497,"wrapT":10497},{"magFilter":9729,"minFilter":9987,"wrapS":10497,"wrapT":10497},{"magFilter":9729,"minFilter":9987,"wrapS":10497,"wrapT":10497}],"images":[{"mimeType":"image/png","uri":"texture-0.png"},{"mimeType":"image/png","uri":"texture-1.png"},{"mimeType":"image/png","uri":"texture-2.png"}],"meshes":[{"primitives":[{"mode":4,"attributes":{"POSITION":0,"TEXCOORD_0":1,"NORMAL":2,"COLOR_0":3},"indices":4,"material":0}]}]}