{"asset":{"version":"2.0","generator":"THREE.GLTFExporter"},"scenes":[{"name":"AuxScene","nodes":[1]}],"scene":0,"nodes":[{"mesh":0},{"children":[0]}],"bufferViews":[{"buffer":0,"byteOffset":0,"byteLength":7776,"target":34962,"byteStride":12},{"buffer":0,"byteOffset":7776,"byteLength":7776,"target":34962,"byteStride":12},{"buffer":0,"byteOffset":15552,"byteLength":5184,"target":34962,"byteStride":8},{"buffer":0,"byteOffset":20736,"byteLength":2376},{"buffer":0,"byteOffset":23112,"byteLength":142144},{"buffer":0,"byteOffset":165256,"byteLength":135052}],"buffers":[{"byteLength":300308,"uri":"mesh.bin"}],"accessors":[{"bufferView":0,"componentType":5126,"count":648,"max":[1.2374999523162842,2.5,0.07000000029802322],"min":[-1.2374999523162842,0,-0.03750000149011612],"type":"VEC3"},{"bufferView":1,"componentType":5126,"count":648,"max":[1,1,1],"min":[-1,-1,-1],"type":"VEC3"},{"bufferView":2,"componentType":5126,"count":648,"max":[1,1],"min":[0,0],"type":"VEC2"}],"materials":[{"pbrMetallicRoughness":{"baseColorFactor":[0.3094689228067428,0.22322795730611386,0.13563332964548108,1],"metallicFactor":0,"roughnessFactor":0.95,"metallicRoughnessTexture":{"index":0},"baseColorTexture":{"index":1}},"normalTexture":{"index":2,"scale":0.32},"name":"timber"}],"textures":[{"sampler":0,"source":0},{"sampler":1,"source":1},{"sampler":2,"source":2}],"samplers":[{"magFilter":9729,"minFilter":9987,"wrapS":10497,"wrapT":10497},{"magFilter":9729,"minFilter":9987,"wrapS":10497,"wrapT":10497},{"magFilter":9729,"minFilter":9987,"wrapS":10497,"wrapT":10497}],"images":[{"mimeType":"image/png","uri":"texture-0.png"},{"mimeType":"image/png","uri":"texture-1.png"},{"mimeType":"image/png","uri":"texture-2.png"}],"meshes":[{"primitives":[{"mode":4,"attributes":{"POSITION":0,"NORMAL":1,"TEXCOORD_0":2},"material":0}]}]}