{"asset":{"version":"2.0","generator":"THREE.GLTFExporter"},"scenes":[{"name":"AuxScene","nodes":[25]}],"scene":0,"nodes":[{"matrix":[-0.2399111395317229,0.01446531430397804,-0.0648291539268803,0,3.214304176484284e-11,0.24296188366746824,0.054212029474743184,0,0.06642337331005818,0.05224651898168722,-0.23415306146229248,0,0.10322161763906479,0.07279122620820999,0.16203129291534424,1],"mesh":0},{"matrix":[0.19200064377168063,0.010471231275616796,-0.0740631560235457,0,-2.8492301400487026e-11,0.204027354720737,0.02884588946962175,0,0.07479971997447457,-0.026878219122054008,0.19010999660701808,0,0.1802717000246048,0.07279122620820999,0.17862378060817719,1],"mesh":1},{"matrix":[-0.2541647558286911,0.0041929320030230696,-0.0702446905179671,0,4.0201501778804875e-11,0.26325783139977854,0.015713958848228272,0,0.07036972220700477,0.015144235607276253,-0.25371319000656145,0,0.04698862507939339,0.07279122620820999,0.20735011994838715,1],"mesh":2},{"matrix":[0.1522435092233404,0.007765887788335242,-0.05880050160605794,0,1.7533458833871304e-11,0.161982163751774,0.021393275154099008,0,0.0593111088065398,-0.019933970379367342,0.15093283426305282,0,0.1728115677833557,0.07279122620820999,0.26081693172454834,1],"mesh":3},{"matrix":[-0.17523016044910766,-0.00802949170653117,-0.047846298321465405,0,6.59037830973891e-11,0.17931480719385573,-0.030092333561669946,0,0.04851536859633549,-0.02900130755554522,-0.17281357921010207,0,0.09341313689947128,0.07279122620820999,0.29710322618484497,1],"mesh":4},{"matrix":[-0.2398968935037138,0.003549096675865507,-0.06632453947285581,0,-3.5666085166461684e-11,0.24856618047077406,0.013301040918031625,0,0.0664194300868137,0.0128187984820214,-0.23955416678822278,0,0.14284345507621765,0.07279122620820999,0.16253945231437683,1],"mesh":5},{"matrix":[0.1961073425628127,-0.012428717884751087,-0.07538187572503773,0,-1.9702506234173395e-10,0.20766012353601904,-0.034238324599534464,0,0.07639960875963482,0.03190281884166579,0.19349496110688857,0,0.23494185507297516,0.07279122620820999,0.15113316476345062,1],"mesh":6},{"matrix":[-0.1510399431935817,0.010334140567266734,-0.040520894937717426,0,5.385896431855697e-11,0.1518612058148524,0.03872952564073452,0,0.04181790757874299,0.03732534916686168,-0.14635533073170873,0,0.09395237267017365,0.07279122620820999,0.14855684340000153,1],"mesh":7},{"matrix":[0.16880370670338213,0.008460927454906486,-0.06521608700295378,0,-2.9973411396174925e-10,0.17965567100829885,0.02330795388821076,0,0.06576264629820895,-0.021718042975631274,0.16740077752878912,0,0.20227579772472382,0.07279122620820999,0.1803540587425232,1],"mesh":8},{"matrix":[-0.2500627039737409,-0.015272516711455112,-0.06752849411408518,0,-4.579472498707533e-11,0.2530782816457847,-0.05723720519709391,0,0.06923400569517993,-0.05516201154422962,-0.24390266870309849,0,0.11755010485649109,0.07279122620820999,0.2112293541431427,1],"mesh":9},{"matrix":[-0.21796850890117273,-0.009247673107601011,-0.05963542953468436,0,-5.678168966667418e-10,0.22349724191834464,-0.03465774164842859,0,0.06034819140695461,-0.03340119241429079,-0.21539413880698566,0,0.034337256103754044,0.07279122620820999,0.17753836512565613,1],"mesh":10},{"matrix":[-0.2399111395317229,0.01446531430397804,-0.0648291539268803,0,3.214304176484284e-11,0.24296188366746824,0.054212029474743184,0,0.06642337331005818,0.05224651898168722,-0.23415306146229248,0,0.10322161763906479,0.07279122620820999,0.16203129291534424,1],"mesh":11},{"matrix":[0.19200064377168063,0.010471231275616796,-0.0740631560235457,0,-2.8492301400487026e-11,0.204027354720737,0.02884588946962175,0,0.07479971997447457,-0.026878219122054008,0.19010999660701808,0,0.1802717000246048,0.07279122620820999,0.17862378060817719,1],"mesh":12},{"matrix":[-0.2541647558286911,0.0041929320030230696,-0.0702446905179671,0,4.0201501778804875e-11,0.26325783139977854,0.015713958848228272,0,0.07036972220700477,0.015144235607276253,-0.25371319000656145,0,0.04698862507939339,0.07279122620820999,0.20735011994838715,1],"mesh":13},{"matrix":[0.1522435092233404,0.007765887788335242,-0.05880050160605794,0,1.7533458833871304e-11,0.161982163751774,0.021393275154099008,0,0.0593111088065398,-0.019933970379367342,0.15093283426305282,0,0.1728115677833557,0.07279122620820999,0.26081693172454834,1],"mesh":14},{"matrix":[-0.17523016044910766,-0.00802949170653117,-0.047846298321465405,0,6.59037830973891e-11,0.17931480719385573,-0.030092333561669946,0,0.04851536859633549,-0.02900130755554522,-0.17281357921010207,0,0.09341313689947128,0.07279122620820999,0.29710322618484497,1],"mesh":15},{"matrix":[-0.2398968935037138,0.003549096675865507,-0.06632453947285581,0,-3.5666085166461684e-11,0.24856618047077406,0.013301040918031625,0,0.0664194300868137,0.0128187984820214,-0.23955416678822278,0,0.14284345507621765,0.07279122620820999,0.16253945231437683,1],"mesh":16},{"matrix":[0.1961073425628127,-0.012428717884751087,-0.07538187572503773,0,-1.9702506234173395e-10,0.20766012353601904,-0.034238324599534464,0,0.07639960875963482,0.03190281884166579,0.19349496110688857,0,0.23494185507297516,0.07279122620820999,0.15113316476345062,1],"mesh":17},{"matrix":[-0.1510399431935817,0.010334140567266734,-0.040520894937717426,0,5.385896431855697e-11,0.1518612058148524,0.03872952564073452,0,0.04181790757874299,0.03732534916686168,-0.14635533073170873,0,0.09395237267017365,0.07279122620820999,0.14855684340000153,1],"mesh":18},{"matrix":[0.16880370670338213,0.008460927454906486,-0.06521608700295378,0,-2.9973411396174925e-10,0.17965567100829885,0.02330795388821076,0,0.06576264629820895,-0.021718042975631274,0.16740077752878912,0,0.20227579772472382,0.07279122620820999,0.1803540587425232,1],"mesh":19},{"matrix":[-0.2500627039737409,-0.015272516711455112,-0.06752849411408518,0,-4.579472498707533e-11,0.2530782816457847,-0.05723720519709391,0,0.06923400569517993,-0.05516201154422962,-0.24390266870309849,0,0.11755010485649109,0.07279122620820999,0.2112293541431427,1],"mesh":20},{"matrix":[-0.21796850890117273,-0.009247673107601011,-0.05963542953468436,0,-5.678168966667418e-10,0.22349724191834464,-0.03465774164842859,0,0.06034819140695461,-0.03340119241429079,-0.21539413880698566,0,0.034337256103754044,0.07279122620820999,0.17753836512565613,1],"mesh":21},{"matrix":[0.2774696039543719,0.04209486173495533,-0.09956371324779512,0,1.5090394566783335e-09,0.27427565919496766,0.11596189006630216,0,0.10809676063535698,-0.10805175141032923,0.25556642070156227,0,0.1802717000246048,0.10279122740030289,0.17862378060817719,1],"mesh":22},{"matrix":[0.2774696039543719,0.04209486173495533,-0.09956371324779512,0,1.5090394566783335e-09,0.27427565919496766,0.11596189006630216,0,0.10809676063535698,-0.10805175141032923,0.25556642070156227,0,0.23494185507297516,0.10279122740030289,0.15113316476345062,1],"mesh":23},{"mesh":24},{"children":[0,1,2,3,4,5,6,7,8,9,10,11,12,13,14,15,16,17,18,19,20,21,22,23,24]}],"bufferViews":[{"buffer":0,"byteOffset":0,"byteLength":5904,"target":34962,"byteStride":12},{"buffer":0,"byteOffset":5904,"byteLength":3936,"target":34962,"byteStride":8},{"buffer":0,"byteOffset":9840,"byteLength":5904,"target":34962,"byteStride":12},{"buffer":0,"byteOffset":15744,"byteLength":5904,"target":34962,"byteStride":12},{"buffer":0,"byteOffset":21648,"byteLength":5280,"target":34963},{"buffer":0,"byteOffset":26928,"byteLength":25920,"target":34962,"byteStride":12},{"buffer":0,"byteOffset":52848,"byteLength":25920,"target":34962,"byteStride":12},{"buffer":0,"byteOffset":78768,"byteLength":17280,"target":34962,"byteStride":8},{"buffer":0,"byteOffset":96048,"byteLength":1728,"target":34962,"byteStride":12},{"buffer":0,"byteOffset":97776,"byteLength":1152,"target":34962,"byteStride":8},{"buffer":0,"byteOffset":98928,"byteLength":1728,"target":34962,"byteStride":12},{"buffer":0,"byteOffset":100656,"byteLength":1260,"target":34963},{"buffer":0,"byteOffset":101916,"byteLength":72144,"target":34962,"byteStride":12},{"buffer":0,"byteOffset":174060,"byteLength":72144,"target":34962,"byteStride":12},{"buffer":0,"byteOffset":246204,"byteLength":48096,"target":34962,"byteStride":8},{"buffer":0,"byteOffset":294300,"byteLength":59536},{"buffer":0,"byteOffset":353836,"byteLength":142904},{"buffer":0,"byteOffset":496740,"byteLength":134720},{"buffer":0,"byteOffset":631460,"byteLength":59536},{"buffer":0,"byteOffset":690996,"byteLength":59536},{"buffer":0,"byteOffset":750532,"byteLength":59536},{"buffer":0,"byteOffset":810068,"byteLength":59536},{"buffer":0,"byteOffset":869604,"byteLength":59536},{"buffer":0,"byteOffset":929140,"byteLength":59536},{"buffer":0,"byteOffset":988676,"byteLength":59536},{"buffer":0,"byteOffset":1048212,"byteLength":59536},{"buffer":0,"byteOffset":1107748,"byteLength":59536},{"buffer":0,"byteOffset":1167284,"byteLength":45480},{"buffer":0,"byteOffset":1212764,"byteLength":123440},{"buffer":0,"byteOffset":1336204,"byteLength":97952},{"buffer":0,"byteOffset":1434156,"byteLength":45480},{"buffer":0,"byteOffset":1479636,"byteLength":2376},{"buffer":0,"byteOffset":1482012,"byteLength":142144},{"buffer":0,"byteOffset":1624156,"byteLength":135052},{"buffer":0,"byteOffset":1759208,"byteLength":59536}],"buffers":[{"byteLength":1818744,"uri":"mesh.bin"}],"accessors":[{"bufferView":0,"componentType":5126,"count":492,"max":[0.33665916323661804,0.12377641350030899,0.38171297311782837],"min":[-0.308366060256958,-0.004000000189989805,-0.20783066749572754],"type":"VEC3"},{"bufferView":1,"componentType":5126,"count":492,"max":[0.9208239912986755,0.9771412014961243],"min":[0.11454243957996368,0.24021166563034058],"type":"VEC2"},{"bufferView":2,"componentType":5126,"count":492,"max":[1,0.9988382458686829,0.8886846899986267],"min":[-0.8095302581787109,-0.9988382458686829,-0.9257019758224487],"type":"VEC3"},{"bufferView":3,"componentType":5126,"count":492,"max":[1.2999999523162842,1.1799999475479126,1],"min":[1,1,0.9200000166893005],"type":"VEC3"},{"bufferView":4,"componentType":5123,"count":2640,"max":[491],"min":[0],"type":"SCALAR"},{"bufferView":5,"componentType":5126,"count":2160,"max":[0.26036718487739563,0.07554183900356293,0.28367629647254944],"min":[-0.21849112212657928,0.004466575104743242,-0.2119104117155075],"type":"VEC3"},{"bufferView":6,"componentType":5126,"count":2160,"max":[0.9991217851638794,0.9814128875732422,0.9995611906051636],"min":[-0.9691587686538696,-0.979023814201355,-0.9989848136901855],"type":"VEC3"},{"bufferView":7,"componentType":5126,"count":2160,"max":[1,1],"min":[0,0],"type":"VEC2"},{"bufferView":8,"componentType":5126,"count":144,"max":[0.10000000149011612,0.07999999821186066,0.09510564804077148],"min":[-0.08331240713596344,0.014999999664723873,-0.09510564804077148],"type":"VEC3"},{"bufferView":9,"componentType":5126,"count":144,"max":[0.8999999761581421,0.8804225921630859],"min":[0.16675037145614624,0.11957739293575287],"type":"VEC2"},{"bufferView":10,"componentType":5126,"count":144,"max":[1,0,0.8427135348320007],"min":[-0.8708016872406006,-0.9194731116294861,-0.8504292368888855],"type":"VEC3"},{"bufferView":11,"componentType":5123,"count":630,"max":[143],"min":[0],"type":"SCALAR"},{"bufferView":12,"componentType":5126,"count":6012,"max":[0.250420480966568,0.07279142737388611,0.30465471744537354],"min":[0.030861321836709976,0.03669130802154541,0.12507644295692444],"type":"VEC3"},{"bufferView":13,"componentType":5126,"count":6012,"max":[0.9996838569641113,1,0.994231641292572],"min":[-0.9996838569641113,-1,-0.994231641292572],"type":"VEC3"},{"bufferView":14,"componentType":5126,"count":6012,"max":[1,1],"min":[0,0],"type":"VEC2"}],"materials":[{"pbrMetallicRoughness":{"baseColorFactor":[0.061246052384376526,0.18782077729701996,0.02955683507025242,1],"metallicFactor":0,"roughnessFactor":0.88,"metallicRoughnessTexture":{"index":0},"baseColorTexture":{"index":1}},"normalTexture":{"index":2,"scale":0.32},"name":"leaf"},{"pbrMetallicRoughness":{"baseColorFactor":[0.061246052384376526,0.18782077729701996,0.02955683507025242,1],"metallicFactor":0,"roughnessFactor":0.88,"metallicRoughnessTexture":{"index":3},"baseColorTexture":{"index":1}},"normalTexture":{"index":2,"scale":0.32},"name":"leaf"},{"pbrMetallicRoughness":{"baseColorFactor":[0.061246052384376526,0.18782077729701996,0.02955683507025242,1],"metallicFactor":0,"roughnessFactor":0.88,"metallicRoughnessTexture":{"index":4},"baseColorTexture":{"index":1}},"normalTexture":{"index":2,"scale":0.32},"name":"leaf"},{"pbrMetallicRoughness":{"baseColorFactor":[0.061246052384376526,0.18782077729701996,0.02955683507025242,1],"metallicFactor":0,"roughnessFactor":0.88,"metallicRoughnessTexture":{"index":5},"baseColorTexture":{"index":1}},"normalTexture":{"index":2,"scale":0.32},"name":"leaf"},{"pbrMetallicRoughness":{"baseColorFactor":[0.19120168685913086,0.2961382567882538,0.052860647439956665,1],"metallicFactor":0,"roughnessFactor":0.88,"metallicRoughnessTexture":{"index":6},"baseColorTexture":{"index":1}},"normalTexture":{"index":2,"scale":0.32},"name":"leaf"},{"pbrMetallicRoughness":{"baseColorFactor":[0.061246052384376526,0.18782077729701996,0.02955683507025242,1],"metallicFactor":0,"roughnessFactor":0.88,"metallicRoughnessTexture":{"index":7},"baseColorTexture":{"index":1}},"normalTexture":{"index":2,"scale":0.32},"name":"leaf"},{"pbrMetallicRoughness":{"baseColorFactor":[0.061246052384376526,0.18782077729701996,0.02955683507025242,1],"metallicFactor":0,"roughnessFactor":0.88,"metallicRoughnessTexture":{"index":8},"baseColorTexture":{"index":1}},"normalTexture":{"index":2,"scale":0.32},"name":"leaf"},{"pbrMetallicRoughness":{"baseColorFactor":[0.061246052384376526,0.18782077729701996,0.02955683507025242,1],"metallicFactor":0,"roughnessFactor":0.88,"metallicRoughnessTexture":{"index":9},"baseColorTexture":{"index":1}},"normalTexture":{"index":2,"scale":0.32},"name":"leaf"},{"pbrMetallicRoughness":{"baseColorFactor":[0.061246052384376526,0.18782077729701996,0.02955683507025242,1],"metallicFactor":0,"roughnessFactor":0.88,"metallicRoughnessTexture":{"index":10},"baseColorTexture":{"index":1}},"normalTexture":{"index":2,"scale":0.32},"name":"leaf"},{"pbrMetallicRoughness":{"baseColorFactor":[0.19120168685913086,0.2961382567882538,0.052860647439956665,1],"metallicFactor":0,"roughnessFactor":0.88,"metallicRoughnessTexture":{"index":11},"baseColorTexture":{"index":1}},"normalTexture":{"index":2,"scale":0.32},"name":"leaf"},{"pbrMetallicRoughness":{"baseColorFactor":[0.061246052384376526,0.18782077729701996,0.02955683507025242,1],"metallicFactor":0,"roughnessFactor":0.88,"metallicRoughnessTexture":{"index":12},"baseColorTexture":{"index":1}},"normalTexture":{"index":2,"scale":0.32},"name":"leaf"},{"pbrMetallicRoughness":{"baseColorFactor":[0.29613827078752575,0.407240211891531,0.08437621153575764,1],"metallicFactor":0,"roughnessFactor":0.97},"name":"vein"},{"pbrMetallicRoughness":{"baseColorFactor":[0.29613827078752575,0.407240211891531,0.08437621153575764,1],"metallicFactor":0,"roughnessFactor":0.97},"name":"vein"},{"pbrMetallicRoughness":{"baseColorFactor":[0.29613827078752575,0.407240211891531,0.08437621153575764,1],"metallicFactor":0,"roughnessFactor":0.97},"name":"vein"},{"pbrMetallicRoughness":{"baseColorFactor":[0.29613827078752575,0.407240211891531,0.08437621153575764,1],"metallicFactor":0,"roughnessFactor":0.97},"name":"vein"},{"pbrMetallicRoughness":{"baseColorFactor":[0.29613827078752575,0.407240211891531,0.08437621153575764,1],"metallicFactor":0,"roughnessFactor":0.97},"name":"vein"},{"pbrMetallicRoughness":{"baseColorFactor":[0.29613827078752575,0.407240211891531,0.08437621153575764,1],"metallicFactor":0,"roughnessFactor":0.97},"name":"vein"},{"pbrMetallicRoughness":{"baseColorFactor":[0.29613827078752575,0.407240211891531,0.08437621153575764,1],"metallicFactor":0,"roughnessFactor":0.97},"name":"vein"},{"pbrMetallicRoughness":{"baseColorFactor":[0.29613827078752575,0.407240211891531,0.08437621153575764,1],"metallicFactor":0,"roughnessFactor":0.97},"name":"vein"},{"pbrMetallicRoughness":{"baseColorFactor":[0.29613827078752575,0.407240211891531,0.08437621153575764,1],"metallicFactor":0,"roughnessFactor":0.97},"name":"vein"},{"pbrMetallicRoughness":{"baseColorFactor":[0.29613827078752575,0.407240211891531,0.08437621153575764,1],"metallicFactor":0,"roughnessFactor":0.97},"name":"vein"},{"pbrMetallicRoughness":{"baseColorFactor":[0.29613827078752575,0.407240211891531,0.08437621153575764,1],"metallicFactor":0,"roughnessFactor":0.97},"name":"vein"},{"pbrMetallicRoughness":{"baseColorFactor":[1,0.514917665367466,0.02028856305209031,1],"metallicFactor":0,"roughnessFactor":0.8,"metallicRoughnessTexture":{"index":13},"baseColorTexture":{"index":14}},"normalTexture":{"index":15,"scale":0.32},"doubleSided":true,"name":"flower"},{"pbrMetallicRoughness":{"baseColorFactor":[1,0.514917665367466,0.02028856305209031,1],"metallicFactor":0,"roughnessFactor":0.8,"metallicRoughnessTexture":{"index":16},"baseColorTexture":{"index":14}},"normalTexture":{"index":15,"scale":0.32},"doubleSided":true,"name":"flower"},{"pbrMetallicRoughness":{"baseColorFactor":[0.09989872823822872,0.16513219449147767,0.0343398068028541,1],"metallicFactor":0,"roughnessFactor":0.92,"metallicRoughnessTexture":{"index":17},"baseColorTexture":{"index":18}},"normalTexture":{"index":19,"scale":0.32},"name":"vine"}],"textures":[{"sampler":0,"source":0},{"sampler":1,"source":1},{"sampler":2,"source":2},{"sampler":3,"source":3},{"sampler":4,"source":4},{"sampler":5,"source":5},{"sampler":6,"source":6},{"sampler":7,"source":7},{"sampler":8,"source":8},{"sampler":9,"source":9},{"sampler":10,"source":10},{"sampler":11,"source":11},{"sampler":12,"source":12},{"sampler":13,"source":13},{"sampler":14,"source":14},{"sampler":15,"source":15},{"sampler":16,"source":16},{"sampler":17,"source":17},{"sampler":18,"source":18},{"sampler":19,"source":19}],"samplers":[{"magFilter":9729,"minFilter":9987,"wrapS":10497,"wrapT":10497},{"magFilter":9729,"minFilter":9987,"wrapS":10497,"wrapT":10497},{"magFilter":9729,"minFilter":9987,"wrapS":10497,"wrapT":10497},{"magFilter":9729,"minFilter":9987,"wrapS":10497,"wrapT":10497},{"magFilter":9729,"minFilter":9987,"wrapS":10497,"wrapT":10497},{"magFilter":9729,"minFilter":9987,"wrapS":10497,"wrapT":10497},{"magFilter":9729,"minFilter":9987,"wrapS":10497,"wrapT":10497},{"magFilter":9729,"minFilter":9987,"wrapS":10497,"wrapT":10497},{"magFilter":9729,"minFilter":9987,"wrapS":10497,"wrapT":10497},{"magFilter":9729,"minFilter":9987,"wrapS":10497,"wrapT":10497},{"magFilter":9729,"minFilter":9987,"wrapS":10497,"wrapT":10497},{"magFilter":9729,"minFilter":9987,"wrapS":10497,"wrapT":10497},{"magFilter":9729,"minFilter":9987,"wrapS":10497,"wrapT":10497},{"magFilter":9729,"minFilter":9987,"wrapS":10497,"wrapT":10497},{"magFilter":9729,"minFilter":9987,"wrapS":10497,"wrapT":10497},{"magFilter":9729,"minFilter":9987,"wrapS":10497,"wrapT":10497},{"magFilter":9729,"minFilter":9987,"wrapS":10497,"wrapT":10497},{"magFilter":9729,"minFilter":9987,"wrapS":10497,"wrapT":10497},{"magFilter":9729,"minFilter":9987,"wrapS":10497,"wrapT":10497},{"magFilter":9729,"minFilter":9987,"wrapS":10497,"wrapT":10497}],"images":[{"mimeType":"image/png","uri":"texture-0.png"},{"mimeType":"image/png","uri":"texture-1.png"},{"mimeType":"image/png","uri":"texture-2.png"},{"mimeType":"image/png","uri":"texture-3.png"},{"mimeType":"image/png","uri":"texture-4.png"},{"mimeType":"image/png","uri":"texture-5.png"},{"mimeType":"image/png","uri":"texture-6.png"},{"mimeType":"image/png","uri":"texture-7.png"},{"mimeType":"image/png","uri":"texture-8.png"},{"mimeType":"image/png","uri":"texture-9.png"},{"mimeType":"image/png","uri":"texture-10.png"},{"mimeType":"image/png","uri":"texture-11.png"},{"mimeType":"image/png","uri":"texture-12.png"},{"mimeType":"image/png","uri":"texture-13.png"},{"mimeType":"image/png","uri":"texture-14.png"},{"mimeType":"image/png","uri":"texture-15.png"},{"mimeType":"image/png","uri":"texture-16.png"},{"mimeType":"image/png","uri":"texture-17.png"},{"mimeType":"image/png","uri":"texture-18.png"},{"mimeType":"image/png","uri":"texture-19.png"}],"meshes":[{"primitives":[{"mode":4,"attributes":{"POSITION":0,"TEXCOORD_0":1,"NORMAL":2,"COLOR_0":3},"indices":4,"material":0}]},{"primitives":[{"mode":4,"attributes":{"POSITION":0,"TEXCOORD_0":1,"NORMAL":2,"COLOR_0":3},"indices":4,"material":1}]},{"primitives":[{"mode":4,"attributes":{"POSITION":0,"TEXCOORD_0":1,"NORMAL":2,"COLOR_0":3},"indices":4,"material":2}]},{"primitives":[{"mode":4,"attributes":{"POSITION":0,"TEXCOORD_0":1,"NORMAL":2,"COLOR_0":3},"indices":4,"material":3}]},{"primitives":[{"mode":4,"attributes":{"POSITION":0,"TEXCOORD_0":1,"NORMAL":2,"COLOR_0":3},"indices":4,"material":4}]},{"primitives":[{"mode":4,"attributes":{"POSITION":0,"TEXCOORD_0":1,"NORMAL":2,"COLOR_0":3},"indices":4,"material":5}]},{"primitives":[{"mode":4,"attributes":{"POSITION":0,"TEXCOORD_0":1,"NORMAL":2,"COLOR_0":3},"indices":4,"material":6}]},{"primitives":[{"mode":4,"attributes":{"POSITION":0,"TEXCOORD_0":1,"NORMAL":2,"COLOR_0":3},"indices":4,"material":7}]},{"primitives":[{"mode":4,"attributes":{"POSITION":0,"TEXCOORD_0":1,"NORMAL":2,"COLOR_0":3},"indices":4,"material":8}]},{"primitives":[{"mode":4,"attributes":{"POSITION":0,"TEXCOORD_0":1,"NORMAL":2,"COLOR_0":3},"indices":4,"material":9}]},{"primitives":[{"mode":4,"attributes":{"POSITION":0,"TEXCOORD_0":1,"NORMAL":2,"COLOR_0":3},"indices":4,"material":10}]},{"primitives":[{"mode":4,"attributes":{"POSITION":5,"NORMAL":6,"TEXCOORD_0":7},"material":11}]},{"primitives":[{"mode":4,"attributes":{"POSITION":5,"NORMAL":6,"TEXCOORD_0":7},"material":12}]},{"primitives":[{"mode":4,"attributes":{"POSITION":5,"NORMAL":6,"TEXCOORD_0":7},"material":13}]},{"primitives":[{"mode":4,"attributes":{"POSITION":5,"NORMAL":6,"TEXCOORD_0":7},"material":14}]},{"primitives":[{"mode":4,"attributes":{"POSITION":5,"NORMAL":6,"TEXCOORD_0":7},"material":15}]},{"primitives":[{"mode":4,"attributes":{"POSITION":5,"NORMAL":6,"TEXCOORD_0":7},"material":16}]},{"primitives":[{"mode":4,"attributes":{"POSITION":5,"NORMAL":6,"TEXCOORD_0":7},"material":17}]},{"primitives":[{"mode":4,"attributes":{"POSITION":5,"NORMAL":6,"TEXCOORD_0":7},"material":18}]},{"primitives":[{"mode":4,"attributes":{"POSITION":5,"NORMAL":6,"TEXCOORD_0":7},"material":19}]},{"primitives":[{"mode":4,"attributes":{"POSITION":5,"NORMAL":6,"TEXCOORD_0":7},"material":20}]},{"primitives":[{"mode":4,"attributes":{"POSITION":5,"NORMAL":6,"TEXCOORD_0":7},"material":21}]},{"primitives":[{"mode":4,"attributes":{"POSITION":8,"TEXCOORD_0":9,"NORMAL":10},"indices":11,"material":22}]},{"primitives":[{"mode":4,"attributes":{"POSITION":8,"TEXCOORD_0":9,"NORMAL":10},"indices":11,"material":23}]},{"primitives":[{"mode":4,"attributes":{"POSITION":12,"NORMAL":13,"TEXCOORD_0":14},"material":24}]}]}