{"asset":{"version":"2.0","generator":"THREE.GLTFExporter"},"scenes":[{"name":"AuxScene","nodes":[2]}],"scene":0,"nodes":[{"mesh":0},{"mesh":1},{"children":[0,1]}],"bufferViews":[{"buffer":0,"byteOffset":0,"byteLength":1728,"target":34962,"byteStride":12},{"buffer":0,"byteOffset":1728,"byteLength":1152,"target":34962,"byteStride":8},{"buffer":0,"byteOffset":2880,"byteLength":1728,"target":34962,"byteStride":12},{"buffer":0,"byteOffset":4608,"byteLength":1260,"target":34963},{"buffer":0,"byteOffset":5868,"byteLength":504,"target":34962,"byteStride":12},{"buffer":0,"byteOffset":6372,"byteLength":504,"target":34962,"byteStride":12},{"buffer":0,"byteOffset":6876,"byteLength":336,"target":34962,"byteStride":8},{"buffer":0,"byteOffset":7212,"byteLength":360,"target":34963},{"buffer":0,"byteOffset":7572,"byteLength":45480},{"buffer":0,"byteOffset":53052,"byteLength":123440},{"buffer":0,"byteOffset":176492,"byteLength":2376},{"buffer":0,"byteOffset":178868,"byteLength":142144},{"buffer":0,"byteOffset":321012,"byteLength":135052},{"buffer":0,"byteOffset":456064,"byteLength":97952}],"buffers":[{"byteLength":554016,"uri":"mesh.bin"}],"accessors":[{"bufferView":0,"componentType":5126,"count":144,"max":[0.10000000149011612,0.07999999821186066,0.09510564804077148],"min":[-0.08331240713596344,0.014999999664723873,-0.09510564804077148],"type":"VEC3"},{"bufferView":1,"componentType":5126,"count":144,"max":[0.8999999761581421,0.8804225921630859],"min":[0.16675037145614624,0.11957739293575287],"type":"VEC2"},{"bufferView":2,"componentType":5126,"count":144,"max":[1,0,0.8427135348320007],"min":[-0.8708016872406006,-0.9194731116294861,-0.8504292368888855],"type":"VEC3"},{"bufferView":3,"componentType":5123,"count":630,"max":[143],"min":[0],"type":"SCALAR"},{"bufferView":4,"componentType":5126,"count":42,"max":[0.03801440820097923,2.886656602640869e-07,0.008999999612569809],"min":[-0.011003483086824417,-0.18300573527812958,-0.007281152997165918],"type":"VEC3"},{"bufferView":5,"componentType":5126,"count":42,"max":[0.9510565400123596,0.38708552718162537,1],"min":[-0.9510565400123596,-0.38708552718162537,-0.80901700258255],"type":"VEC3"},{"bufferView":6,"componentType":5126,"count":42,"max":[1,1],"min":[0,0],"type":"VEC2"},{"bufferView":7,"componentType":5123,"count":180,"max":[41],"min":[0],"type":"SCALAR"}],"materials":[{"pbrMetallicRoughness":{"baseColorFactor":[1,0.514917665367466,0.02028856305209031,1],"metallicFactor":0,"roughnessFactor":0.8,"metallicRoughnessTexture":{"index":0},"baseColorTexture":{"index":1}},"normalTexture":{"index":2,"scale":0.32},"doubleSided":true,"name":"flower"},{"pbrMetallicRoughness":{"baseColorFactor":[0.09989872823822872,0.16513219449147767,0.0343398068028541,1],"metallicFactor":0,"roughnessFactor":0.92,"metallicRoughnessTexture":{"index":3},"baseColorTexture":{"index":4}},"normalTexture":{"index":5,"scale":0.32},"name":"vine"}],"textures":[{"sampler":0,"source":0},{"sampler":1,"source":1},{"sampler":2,"source":2},{"sampler":3,"source":3},{"sampler":4,"source":4},{"sampler":5,"source":5}],"samplers":[{"magFilter":9729,"minFilter":9987,"wrapS":10497,"wrapT":10497},{"magFilter":9729,"minFilter":9987,"wrapS":10497,"wrapT":10497},{"magFilter":9729,"minFilter":9987,"wrapS":10497,"wrapT":10497},{"magFilter":9729,"minFilter":9987,"wrapS":10497,"wrapT":10497},{"magFilter":9729,"minFilter":9987,"wrapS":10497,"wrapT":10497},{"magFilter":9729,"minFilter":9987,"wrapS":10497,"wrapT":10497}],"images":[{"mimeType":"image/png","uri":"texture-0.png"},{"mimeType":"image/png","uri":"texture-1.png"},{"mimeType":"image/png","uri":"texture-2.png"},{"mimeType":"image/png","uri":"texture-3.png"},{"mimeType":"image/png","uri":"texture-4.png"},{"mimeType":"image/png","uri":"texture-5.png"}],"meshes":[{"primitives":[{"mode":4,"attributes":{"POSITION":0,"TEXCOORD_0":1,"NORMAL":2},"indices":3,"material":0}]},{"primitives":[{"mode":4,"attributes":{"POSITION":4,"NORMAL":5,"TEXCOORD_0":6},"indices":7,"material":1}]}]}