{"asset":{"version":"2.0","generator":"THREE.GLTFExporter"},"scenes":[{"name":"AuxScene","nodes":[1]}],"scene":0,"nodes":[{"mesh":0},{"children":[0]}],"bufferViews":[{"buffer":0,"byteOffset":0,"byteLength":5904,"target":34962,"byteStride":12},{"buffer":0,"byteOffset":5904,"byteLength":3936,"target":34962,"byteStride":8},{"buffer":0,"byteOffset":9840,"byteLength":5904,"target":34962,"byteStride":12},{"buffer":0,"byteOffset":15744,"byteLength":5904,"target":34962,"byteStride":12},{"buffer":0,"byteOffset":21648,"byteLength":5280,"target":34963},{"buffer":0,"byteOffset":26928,"byteLength":59536},{"buffer":0,"byteOffset":86464,"byteLength":142904},{"buffer":0,"byteOffset":229368,"byteLength":134720}],"buffers":[{"byteLength":364088,"uri":"mesh.bin"}],"accessors":[{"bufferView":0,"componentType":5126,"count":492,"max":[0.3125655949115753,0.12450604885816574,0.3829626739025116],"min":[-0.2916726768016815,-0.004000000189989805,-0.18860973417758942],"type":"VEC3"},{"bufferView":1,"componentType":5126,"count":492,"max":[0.8907070159912109,0.9787033200263977],"min":[0.1354091465473175,0.26423782110214233],"type":"VEC2"},{"bufferView":2,"componentType":5126,"count":492,"max":[1,0.9986680746078491,0.9730886816978455],"min":[-0.8770690560340881,-0.9986680746078491,-0.9768267273902893],"type":"VEC3"},{"bufferView":3,"componentType":5126,"count":492,"max":[1.2999999523162842,1.1799999475479126,1],"min":[1,1,0.9200000166893005],"type":"VEC3"},{"bufferView":4,"componentType":5123,"count":2640,"max":[491],"min":[0],"type":"SCALAR"}],"materials":[{"pbrMetallicRoughness":{"baseColorFactor":[0.21952619971859377,0.16513219449147767,0.05126945836711539,1],"metallicFactor":0,"roughnessFactor":0.88,"metallicRoughnessTexture":{"index":0},"baseColorTexture":{"index":1}},"normalTexture":{"index":2,"scale":0.32},"name":"leaf"}],"textures":[{"sampler":0,"source":0},{"sampler":1,"source":1},{"sampler":2,"source":2}],"samplers":[{"magFilter":9729,"minFilter":9987,"wrapS":10497,"wrapT":10497},{"magFilter":9729,"minFilter":9987,"wrapS":10497,"wrapT":10497},{"magFilter":9729,"minFilter":9987,"wrapS":10497,"wrapT":10497}],"images":[{"mimeType":"image/png","uri":"texture-0.png"},{"mimeType":"image/png","uri":"texture-1.png"},{"mimeType":"image/png","uri":"texture-2.png"}],"meshes":[{"primitives":[{"mode":4,"attributes":{"POSITION":0,"TEXCOORD_0":1,"NORMAL":2,"COLOR_0":3},"indices":4,"material":0}]}]}