{"asset":{"version":"2.0","generator":"THREE.GLTFExporter"},"scenes":[{"name":"AuxScene","nodes":[1]}],"scene":0,"nodes":[{"mesh":0},{"children":[0]}],"bufferViews":[{"buffer":0,"byteOffset":0,"byteLength":864,"target":34962,"byteStride":12},{"buffer":0,"byteOffset":864,"byteLength":864,"target":34962,"byteStride":12},{"buffer":0,"byteOffset":1728,"byteLength":576,"target":34962,"byteStride":8},{"buffer":0,"byteOffset":2304,"byteLength":672,"target":34963},{"buffer":0,"byteOffset":2976,"byteLength":2376},{"buffer":0,"byteOffset":5352,"byteLength":142144},{"buffer":0,"byteOffset":147496,"byteLength":135052}],"buffers":[{"byteLength":282548,"uri":"mesh.bin"}],"accessors":[{"bufferView":0,"componentType":5126,"count":72,"max":[0.07902766019105911,0.17791610956192017,0.05114790052175522],"min":[-0.022383542731404305,-0.013335639610886574,-0.02147565223276615],"type":"VEC3"},{"bufferView":1,"componentType":5126,"count":72,"max":[0.9745147228240967,0.8233210444450378,1],"min":[-0.9749736189842224,-0.8287972807884216,-0.9009688496589661],"type":"VEC3"},{"bufferView":2,"componentType":5126,"count":72,"max":[1,1],"min":[0,0],"type":"VEC2"},{"bufferView":3,"componentType":5123,"count":336,"max":[71],"min":[0],"type":"SCALAR"}],"materials":[{"pbrMetallicRoughness":{"baseColorFactor":[0.22322795730611386,0.16202937562896222,0.07036009568874305,1],"metallicFactor":0,"roughnessFactor":0.95,"metallicRoughnessTexture":{"index":0},"baseColorTexture":{"index":1}},"normalTexture":{"index":2,"scale":0.32},"name":"stem"}],"textures":[{"sampler":0,"source":0},{"sampler":1,"source":1},{"sampler":2,"source":2}],"samplers":[{"magFilter":9729,"minFilter":9987,"wrapS":10497,"wrapT":10497},{"magFilter":9729,"minFilter":9987,"wrapS":10497,"wrapT":10497},{"magFilter":9729,"minFilter":9987,"wrapS":10497,"wrapT":10497}],"images":[{"mimeType":"image/png","uri":"texture-0.png"},{"mimeType":"image/png","uri":"texture-1.png"},{"mimeType":"image/png","uri":"texture-2.png"}],"meshes":[{"primitives":[{"mode":4,"attributes":{"POSITION":0,"NORMAL":1,"TEXCOORD_0":2},"indices":3,"material":0}]}]}