{"asset":{"version":"2.0","generator":"THREE.GLTFExporter"},"scenes":[{"name":"AuxScene","nodes":[2]}],"scene":0,"nodes":[{"mesh":0},{"mesh":1},{"children":[0,1]}],"bufferViews":[{"buffer":0,"byteOffset":0,"byteLength":11172,"target":34962,"byteStride":12},{"buffer":0,"byteOffset":11172,"byteLength":7448,"target":34962,"byteStride":8},{"buffer":0,"byteOffset":18620,"byteLength":11172,"target":34962,"byteStride":12},{"buffer":0,"byteOffset":29792,"byteLength":10368,"target":34963},{"buffer":0,"byteOffset":40160,"byteLength":864,"target":34962,"byteStride":12},{"buffer":0,"byteOffset":41024,"byteLength":864,"target":34962,"byteStride":12},{"buffer":0,"byteOffset":41888,"byteLength":576,"target":34962,"byteStride":8},{"buffer":0,"byteOffset":42464,"byteLength":672,"target":34963},{"buffer":0,"byteOffset":43136,"byteLength":45480},{"buffer":0,"byteOffset":88616,"byteLength":123440},{"buffer":0,"byteOffset":212056,"byteLength":97952},{"buffer":0,"byteOffset":310008,"byteLength":2376},{"buffer":0,"byteOffset":312384,"byteLength":135052},{"buffer":0,"byteOffset":447436,"byteLength":142144}],"buffers":[{"byteLength":589580,"uri":"mesh.bin"}],"accessors":[{"bufferView":0,"componentType":5126,"count":931,"max":[0.336899995803833,0.3843843638896942,0.34431517124176025],"min":[-0.3315472900867462,0.012392544187605381,-0.32274526357650757],"type":"VEC3"},{"bufferView":1,"componentType":5126,"count":931,"max":[1,1],"min":[0,0],"type":"VEC2"},{"bufferView":2,"componentType":5126,"count":931,"max":[1,0.9999866485595703,0.9973099231719971],"min":[-0.9967381954193115,-0.9994810819625854,-0.9988322854042053],"type":"VEC3"},{"bufferView":3,"componentType":5123,"count":5184,"max":[930],"min":[0],"type":"SCALAR"},{"bufferView":4,"componentType":5126,"count":72,"max":[0.07902766019105911,0.5343561172485352,0.05114790052175522],"min":[-0.022383542731404305,0.34310436248779297,-0.02147565223276615],"type":"VEC3"},{"bufferView":5,"componentType":5126,"count":72,"max":[0.9745147228240967,0.8233210444450378,1],"min":[-0.9749736189842224,-0.8287972807884216,-0.9009688496589661],"type":"VEC3"},{"bufferView":6,"componentType":5126,"count":72,"max":[1,1],"min":[0,0],"type":"VEC2"},{"bufferView":7,"componentType":5123,"count":336,"max":[71],"min":[0],"type":"SCALAR"}],"materials":[{"pbrMetallicRoughness":{"baseColorFactor":[0.775822218312646,0.3094689228067428,0.02955683443236377,1],"metallicFactor":0,"roughnessFactor":0.84,"metallicRoughnessTexture":{"index":0},"baseColorTexture":{"index":1}},"normalTexture":{"index":2,"scale":0.32},"name":"fruit"},{"pbrMetallicRoughness":{"baseColorFactor":[0.22322795730611386,0.16202937562896222,0.07036009568874305,1],"metallicFactor":0,"roughnessFactor":0.95,"metallicRoughnessTexture":{"index":3},"baseColorTexture":{"index":4}},"normalTexture":{"index":5,"scale":0.32},"name":"stem"}],"textures":[{"sampler":0,"source":0},{"sampler":1,"source":1},{"sampler":2,"source":2},{"sampler":3,"source":3},{"sampler":4,"source":4},{"sampler":5,"source":5}],"samplers":[{"magFilter":9729,"minFilter":9987,"wrapS":10497,"wrapT":10497},{"magFilter":9729,"minFilter":9987,"wrapS":10497,"wrapT":10497},{"magFilter":9729,"minFilter":9987,"wrapS":10497,"wrapT":10497},{"magFilter":9729,"minFilter":9987,"wrapS":10497,"wrapT":10497},{"magFilter":9729,"minFilter":9987,"wrapS":10497,"wrapT":10497},{"magFilter":9729,"minFilter":9987,"wrapS":10497,"wrapT":10497}],"images":[{"mimeType":"image/png","uri":"texture-0.png"},{"mimeType":"image/png","uri":"texture-1.png"},{"mimeType":"image/png","uri":"texture-2.png"},{"mimeType":"image/png","uri":"texture-3.png"},{"mimeType":"image/png","uri":"texture-4.png"},{"mimeType":"image/png","uri":"texture-5.png"}],"meshes":[{"primitives":[{"mode":4,"attributes":{"POSITION":0,"TEXCOORD_0":1,"NORMAL":2},"extras":{"socket":[0,0.35644000000000003,0],"height":0.402,"variant":2},"indices":3,"material":0}]},{"primitives":[{"mode":4,"attributes":{"POSITION":4,"NORMAL":5,"TEXCOORD_0":6},"indices":7,"material":1}]}]}