{"asset":{"version":"2.0","generator":"THREE.GLTFExporter"},"scenes":[{"name":"AuxScene","nodes":[1]}],"scene":0,"nodes":[{"mesh":0},{"children":[0]}],"bufferViews":[{"buffer":0,"byteOffset":0,"byteLength":25920,"target":34962,"byteStride":12},{"buffer":0,"byteOffset":25920,"byteLength":25920,"target":34962,"byteStride":12},{"buffer":0,"byteOffset":51840,"byteLength":17280,"target":34962,"byteStride":8}],"buffers":[{"byteLength":69120,"uri":"mesh.bin"}],"accessors":[{"bufferView":0,"componentType":5126,"count":2160,"max":[0.26036718487739563,0.07554183900356293,0.28367629647254944],"min":[-0.21849112212657928,0.004466575104743242,-0.2119104117155075],"type":"VEC3"},{"bufferView":1,"componentType":5126,"count":2160,"max":[0.9991217851638794,0.9814128875732422,0.9995611906051636],"min":[-0.9691587686538696,-0.979023814201355,-0.9989848136901855],"type":"VEC3"},{"bufferView":2,"componentType":5126,"count":2160,"max":[1,1],"min":[0,0],"type":"VEC2"}],"materials":[{"pbrMetallicRoughness":{"baseColorFactor":[0.29613827078752575,0.407240211891531,0.08437621153575764,1],"metallicFactor":0,"roughnessFactor":0.97},"name":"vein"}],"meshes":[{"primitives":[{"mode":4,"attributes":{"POSITION":0,"NORMAL":1,"TEXCOORD_0":2},"material":0}]}]}